# xmcd CD database file
#
# Track frame offsets:
#	150
#	18280
#	31763
#	49741
#	61254
#	74517
#	92582
#	108280
#	123919
#	138093
#	149545
#	164610
#	176084
#	191911
#	200691
#	213172
#	232025
#	245777
#	256237
#
# Disc length: 3595 seconds
#
# Revision: 3
# Processed by: cddbd v1.5.1PL0 Copyright (c) Steve Scherf et al.
# Submitted via: CDex 1.40PlusFr
#
DISCID=180e0913
DTITLE=Uña Ramos - Le chant du mond
DYEAR=1900
DGENRE=Instrumental
TTITLE0=Kena pop
TTITLE1=Un chemin de lamas
TTITLE2=Le pont de bois
TTITLE3=Notes de feu
TTITLE4=Nostalgies
TTITLE5=Hono
TTITLE6=Petite boite à musique
TTITLE7=La vallée des coquelicots
TTITLE8=Le château endormi
TTITLE9=Couleur d'automne
TTITLE10=Mercede
TTITLE11=El gringo
TTITLE12=Reflets de soleil
TTITLE13=Poncho gris
TTITLE14=Petit floco de neige
TTITLE15=Une flûte dans la nuit
TTITLE16=le vent du nord
TTITLE17=Danse au point du jour
TTITLE18=Pancho Karancho
EXTD=Hans Heintze an der Großen Silbermann-Orgel ID3G: 33
EXTT0=TUMBAS
EXTT1=TUMBAS
EXTT2=BOLA 8
EXTT3=A.M.C
EXTT4=TUMBAS
EXTT5=SUPER - A
EXTT6=SINDICATO ARGENTINO DEL HIP HOP
EXTT7=ENCONTRA DEL HOMBRE
EXTT8=ENCONTRA DEL HOMBRE
EXTT9=BOLA 8
EXTT10=a) A Message from Mars b) Martian Battle - Avante Popolo
EXTT11=Scott Joplin
EXTT12=Fred Astaire
EXTT13=Al Jolson
EXTT14=Ginger Rogers
EXTT15=Fred Astaire and Judy Garland
EXTT16=Marilyn Monroe
EXTT17=Frank Sinatra
EXTT18=Glenn Miller
PLAYORDER=
